<svg width="302" height="242" viewBox="0 0 302 242" fill="none" xmlns="http://www.w3.org/2000/svg">
<path d="M28.8678 119.814L150.399 211.297C150.688 211.515 150.833 211.624 151 211.624C151.167 211.624 151.312 211.515 151.601 211.297L273.132 119.814C280.722 114.1 284.517 111.244 284.834 107.197C285.151 103.15 281.847 99.7374 275.239 92.9121L209.585 25.1035C202.904 18.2042 199.564 14.7545 195.639 15.212C191.715 15.6695 189.257 19.7949 184.343 28.0456L152.718 81.1428C151.952 82.43 151.568 83.0736 151 83.0736C150.432 83.0736 150.048 82.43 149.282 81.1428L117.657 28.0457C112.743 19.7949 110.286 15.6695 106.361 15.212C102.436 14.7545 99.0956 18.2042 92.4155 25.1035L26.7615 92.9121C20.1531 99.7374 16.8489 103.15 17.1658 107.197C17.4826 111.244 21.2777 114.1 28.8678 119.814Z" fill="#FC93A6" stroke="#FC93A6" stroke-width="2"/>
</svg>
