<svg width="70" height="60" viewBox="0 0 70 60" fill="none" xmlns="http://www.w3.org/2000/svg">
<path d="M14.6138 36.0851L34.3729 51.995C34.6734 52.237 34.8237 52.3581 35 52.3581C35.1763 52.3581 35.3266 52.237 35.6272 51.995L55.3862 36.0851C59.3472 32.8958 61.3277 31.3011 62.2121 29.3458C63.0766 27.4344 63.2462 25.281 62.6917 23.2579C62.1244 21.1882 60.418 19.3031 57.0053 15.5328L57.0053 15.5328C53.1331 11.2549 51.197 9.11598 49.0521 8.47694C46.9619 7.85418 44.7081 8.11178 42.8124 9.19011C40.867 10.2966 39.4635 12.8173 36.6564 17.8586L36.4149 18.2924C35.9433 19.1392 35.7075 19.5627 35.3936 19.6971C35.1422 19.8047 34.8578 19.8047 34.6065 19.6971C34.2925 19.5627 34.0567 19.1392 33.5852 18.2924L33.3436 17.8586C30.5365 12.8173 29.133 10.2966 27.1877 9.19011C25.2919 8.11178 23.0381 7.85418 20.9479 8.47694C18.8031 9.11598 16.867 11.2549 12.9947 15.5328L12.9947 15.5328C9.582 19.3031 7.87564 21.1882 7.30837 23.2579C6.75384 25.281 6.92347 27.4344 7.78796 29.3458C8.67231 31.3011 10.6528 32.8958 14.6138 36.0851Z" fill="white" stroke="white" stroke-width="2"/>
</svg>
